<svg width="221" height="60" viewBox="0 0 221 60" fill="none" xmlns="http://www.w3.org/2000/svg">
<path d="M22.3006 39.4279H11.702C11.702 39.4279 11.8274 42.4688 12.5173 44.5914C13.2071 46.714 13.7122 48.3921 15.099 50.4342C19.1441 56.3911 24.0697 58.8447 31.2687 58.9947C37.427 59.123 41.7286 56.9432 45.8079 53.2877C48.6889 50.706 51.1469 44.5987 51.2431 41.3303C51.5148 32.0904 51.3789 10.7573 51.3789 10.7573H40.6444C40.6444 10.7573 41.0521 29.5087 40.6444 41.3303C40.5695 43.5043 39.1548 45.0748 37.5192 46.4937C35.5287 48.2205 33.4428 48.6678 31.2687 48.6678C29.0946 48.6678 25.9568 46.8482 24.0671 44.5914C22.5235 42.7479 22.3006 39.4279 22.3006 39.4279Z" fill="#67A1FE"/>
<path d="M84.5328 8.03846L57.9003 55.7323L70.8089 55.8682L84.9404 30.3228L99.072 55.8682H111.165L84.5328 8.03846Z" fill="url(#paint0_linear_28_106)"/>
<path d="M152.824 39.7004C152.824 39.7004 148.204 46.872 139.644 46.2226C135.456 45.9049 132.752 44.6374 129.997 41.4668C127.377 38.4518 126.506 35.8125 126.6 31.8193C126.688 28.0753 127.571 25.7044 129.997 22.8513C133.026 19.2881 137.141 17.9285 141.818 17.9596C147.661 17.9985 152.281 23.8024 152.281 23.8024L164.102 23.5307C164.102 23.5307 160.841 15.5138 155.95 12.3885C150.689 9.02727 147.246 7.26496 141.003 7.22508C134.406 7.18294 130.053 8.59274 124.969 12.7962C120.443 16.5385 118.264 19.5726 116.952 25.2971C115.457 31.8193 116.006 37.2224 117.36 40.6515C119.398 45.815 121.844 49.0761 128.23 53.5601C132.024 56.224 135.012 56.6231 139.644 56.8213C146.166 57.1003 148.204 56.1419 153.232 53.5601C161.075 49.5327 164.374 39.7004 164.374 39.7004H152.824Z" fill="url(#paint1_linear_28_106)"/>
<path d="M176.116 8.85371H186.986V32.2251L203.7 8.85371H216.472L199.759 32.6327L220.141 56.9552H207.504L186.986 32.9045V56.9552H176.116V8.85371Z" fill="#BD34FE"/>
<g filter="url(#filter0_d_28_106)">
<path d="M14.5986 32.2038H4C4 32.2038 4.12544 35.2446 4.81528 37.3672C5.50512 39.4898 6.01024 41.1679 7.397 43.2101C11.4421 49.167 16.3677 51.6205 23.5667 51.7705C29.725 51.8988 34.0266 49.719 38.1059 46.0635C40.9869 43.4818 43.4449 37.3746 43.5411 34.1061C43.8128 24.8663 43.6769 3.5331 43.6769 3.5331H32.9424C32.9424 3.5331 33.3501 22.2845 32.9424 34.1061C32.8675 36.2802 31.4528 37.8506 29.8172 39.2695C27.8267 40.9963 25.7408 41.4436 23.5667 41.4436C21.3926 41.4436 18.2548 39.6241 16.3651 37.3672C14.8215 35.5238 14.5986 32.2038 14.5986 32.2038Z" fill="white"/>
<path d="M76.8327 0.814293L50.2003 48.5082L63.1089 48.644L77.2404 23.0986L91.3719 48.644H103.465L76.8327 0.814293Z" fill="white"/>
<path d="M145.122 32.4762C145.122 32.4762 140.502 39.6478 131.942 38.9985C127.754 38.6807 125.05 37.4133 122.294 34.2427C119.674 31.2277 118.804 28.5884 118.897 24.5952C118.986 20.8511 119.868 18.4802 122.294 15.6271C125.324 12.0639 129.439 10.7043 134.116 10.7354C139.959 10.7743 144.579 16.5783 144.579 16.5783L156.4 16.3065C156.4 16.3065 153.139 8.2896 148.248 5.16435C142.986 1.80312 139.544 0.0408014 133.301 0.000920744C126.704 -0.0412168 122.351 1.36859 117.267 5.57199C112.741 9.31435 110.562 12.3484 109.25 18.073C107.755 24.5952 108.304 29.9982 109.658 33.4274C111.696 38.5908 114.142 41.8519 120.528 46.336C124.322 48.9998 127.31 49.399 131.942 49.5971C138.464 49.8761 140.502 48.9177 145.53 46.336C153.373 42.3085 156.672 32.4762 156.672 32.4762H145.122Z" fill="white"/>
<path d="M168.416 1.62955H179.286V25.0009L196 1.62955H208.772L192.059 25.4085L212.441 49.7311H199.804L179.286 25.6803V49.7311H168.416V1.62955Z" fill="white"/>
</g>
<defs>
<filter id="filter0_d_28_106" x="0" y="7.62939e-06" width="216.441" height="59.7759" filterUnits="userSpaceOnUse" color-interpolation-filters="sRGB">
<feFlood flood-opacity="0" result="BackgroundImageFix"/>
<feColorMatrix in="SourceAlpha" type="matrix" values="0 0 0 0 0 0 0 0 0 0 0 0 0 0 0 0 0 0 127 0" result="hardAlpha"/>
<feOffset dy="4"/>
<feGaussianBlur stdDeviation="2"/>
<feComposite in2="hardAlpha" operator="out"/>
<feColorMatrix type="matrix" values="0 0 0 0 0 0 0 0 0 0 0 0 0 0 0 0 0 0 0.25 0"/>
<feBlend mode="normal" in2="BackgroundImageFix" result="effect1_dropShadow_28_106"/>
<feBlend mode="normal" in="SourceGraphic" in2="effect1_dropShadow_28_106" result="shape"/>
</filter>
<linearGradient id="paint0_linear_28_106" x1="97.6521" y1="31.9548" x2="111.165" y2="31.9533" gradientUnits="userSpaceOnUse">
<stop stop-color="#67A1FE"/>
<stop offset="1" stop-color="#BD34FE"/>
</linearGradient>
<linearGradient id="paint1_linear_28_106" x1="84.8702" y1="31.9548" x2="164.374" y2="32.046" gradientUnits="userSpaceOnUse">
<stop stop-color="#67A1FE"/>
<stop offset="1" stop-color="#BD34FE"/>
</linearGradient>
</defs>
</svg>
